<svg xmlns="http://www.w3.org/2000/svg" width="24" height="24" viewBox="0 0 24 24">
  <g id="About_Us" data-name="About Us" transform="translate(5517 17724)">
    <rect id="Rectangle_306" data-name="Rectangle 306" width="24" height="24" transform="translate(-5517 -17724)" fill="#fff" opacity="0"/>
    <path id="about" d="M13.722,4A9.733,9.733,0,0,0,4,13.722a9.628,9.628,0,0,0,1.1,4.406L4.046,21.9a1.24,1.24,0,0,0,1.5,1.5L9.32,22.346a9.623,9.623,0,0,0,4.4,1.1A9.722,9.722,0,0,0,13.722,4Zm0,1.458A8.264,8.264,0,1,1,9.709,20.943a.729.729,0,0,0-.552-.065l-3.591,1,1-3.589a.729.729,0,0,0-.066-.552A8.259,8.259,0,0,1,13.722,5.458Zm-.011,2.906a.729.729,0,0,0-.718.74v5.833a.729.729,0,1,0,1.458,0V9.1a.729.729,0,0,0-.741-.74Zm.011,8.76a.972.972,0,1,0,.972.972A.972.972,0,0,0,13.722,17.125Z" transform="translate(-5518.722 -17725.723)" fill="#050c19"/>
  </g>
</svg>
