<svg xmlns="http://www.w3.org/2000/svg" width="24" height="24" viewBox="0 0 24 24"><g transform="translate(-2338 -1413)"><rect width="24" height="24" transform="translate(2338 1413)" fill="none"/><path d="M3,18a1,1,0,0,0,1,1H9V17H4A1,1,0,0,0,3,18ZM3,6A1,1,0,0,0,4,7h9V5H4A1,1,0,0,0,3,6ZM13,20V19h7a1,1,0,0,0,0-2H13V16a1,1,0,0,0-2,0v4a1,1,0,0,0,2,0ZM7,10v1H4a1,1,0,0,0,0,2H7v1a1,1,0,0,0,2,0V10a1,1,0,0,0-2,0Zm14,2a1,1,0,0,0-1-1H11v2h9A1,1,0,0,0,21,12ZM16,9a1,1,0,0,0,1-1V7h3a1,1,0,0,0,0-2H17V4a1,1,0,0,0-2,0V8A1,1,0,0,0,16,9Z" transform="translate(2338 1413)"/></g></svg>