<svg xmlns="http://www.w3.org/2000/svg" width="20.672" height="18.369" viewBox="0 0 20.672 18.369">
  <g id="Group_1006" data-name="Group 1006" transform="translate(0 0)">
    <path id="Path_2934" data-name="Path 2934" d="M13.575,6.976,12.511,6.02a5.093,5.093,0,0,0-6.8-.008l-1.076.963a6.557,6.557,0,0,0-2.183,4.881v1.3a2.835,2.835,0,0,0,3.726,2.7l1.482-.479a4.722,4.722,0,0,1,2.891,0l1.482.479a2.835,2.835,0,0,0,3.713-2.7V11.847A6.56,6.56,0,0,0,13.575,6.976Zm1.183,6.175a1.847,1.847,0,0,1-2.421,1.761l-1.482-.479a5.713,5.713,0,0,0-3.5,0l-1.495.483a1.847,1.847,0,0,1-2.421-1.761v-1.3A5.566,5.566,0,0,1,5.295,7.711l1.076-.963a4.1,4.1,0,0,1,5.479.007l1.064.957a5.568,5.568,0,0,1,1.843,4.135Z" transform="translate(1.233 2.371)" fill="#063f6a"/>
    <path id="Path_2935" data-name="Path 2935" d="M4.731,6.2a1.6,1.6,0,0,0,1.239.662A1.45,1.45,0,0,0,7.338,5.436l.238-2.242A3.265,3.265,0,0,0,6.788.735,1.9,1.9,0,0,0,4.856.063L3.919.338A1.775,1.775,0,0,0,2.742,1.583a3.176,3.176,0,0,0,.577,2.859ZM3.685,1.879A.834.834,0,0,1,4.2,1.287l.938-.275A.609.609,0,0,1,5.3.987a1.079,1.079,0,0,1,.748.409,2.246,2.246,0,0,1,.54,1.693L6.355,5.331c-.035.329-.186.542-.385.542A.662.662,0,0,1,5.5,5.581L4.09,3.822A2.223,2.223,0,0,1,3.685,1.879Z" transform="translate(1.315)" fill="#063f6a"/>
    <path id="Path_2936" data-name="Path 2936" d="M7.75,5.435A1.449,1.449,0,0,0,9.118,6.862,1.605,1.605,0,0,0,10.357,6.2l1.411-1.759a3.177,3.177,0,0,0,.578-2.859A1.775,1.775,0,0,0,11.169.338L10.231.063A1.9,1.9,0,0,0,8.3.735a3.265,3.265,0,0,0-.789,2.458ZM9.035,1.4A1.078,1.078,0,0,1,9.783.987a.6.6,0,0,1,.169.024l.938.275a.832.832,0,0,1,.512.592A2.224,2.224,0,0,1,11,3.822L9.586,5.581a.664.664,0,0,1-.468.292c-.2,0-.35-.213-.385-.542L8.494,3.088A2.246,2.246,0,0,1,9.035,1.4Z" transform="translate(3.769)" fill="#063f6a"/>
    <path id="Path_2937" data-name="Path 2937" d="M14.81,4.251l-.636-.483A1.433,1.433,0,0,0,13.3,3.48a2.545,2.545,0,0,0-2.254,1.932l-.471,1.781a1.391,1.391,0,0,0,.194,1.231,1.149,1.149,0,0,0,.921.442,1.57,1.57,0,0,0,.785-.228l1.589-.931a2.687,2.687,0,0,0,1.318-2.086A1.558,1.558,0,0,0,14.81,4.251Zm-1.247,2.6-1.589.931a.575.575,0,0,1-.285.093.156.156,0,0,1-.138-.057.459.459,0,0,1-.022-.374L12,5.666a1.587,1.587,0,0,1,1.3-1.2.441.441,0,0,1,.278.086l.636.483a.6.6,0,0,1,.182.524A1.718,1.718,0,0,1,13.563,6.854Z" transform="translate(5.287 1.75)" fill="#063f6a"/>
    <path id="Path_2938" data-name="Path 2938" d="M4.617,8.424a1.39,1.39,0,0,0,.194-1.231L4.34,5.413A2.545,2.545,0,0,0,2.086,3.48a1.433,1.433,0,0,0-.876.287l-.636.483A1.559,1.559,0,0,0,0,5.621,2.687,2.687,0,0,0,1.322,7.707l1.589.931a1.569,1.569,0,0,0,.785.228A1.148,1.148,0,0,0,4.617,8.424Zm-2.8-1.57A1.719,1.719,0,0,1,.991,5.562a.6.6,0,0,1,.182-.524l.636-.483a.442.442,0,0,1,.278-.086,1.587,1.587,0,0,1,1.3,1.2l.472,1.781a.459.459,0,0,1-.022.374.154.154,0,0,1-.138.057.573.573,0,0,1-.285-.093Z" transform="translate(0 1.75)" fill="#063f6a"/>
  </g>
</svg>
