<svg xmlns="http://www.w3.org/2000/svg" width="22.351" height="23.928" viewBox="0 0 22.351 23.928"><g transform="translate(-4.244)"><path d="M7008.96,17083.793a.379.379,0,0,1-.3-.258l-.84-2.662a9.4,9.4,0,0,1-3.3-1.9l-2.723.605a.377.377,0,0,1-.373-.133,11.893,11.893,0,0,1-1.81-3.139.37.37,0,0,1,.073-.387l1.882-2.053a9.324,9.324,0,0,1,0-3.8L6999.7,17068a.373.373,0,0,1-.073-.391,11.926,11.926,0,0,1,1.805-3.125.375.375,0,0,1,.377-.129l2.723.6a9.407,9.407,0,0,1,3.292-1.9l.84-2.662a.37.37,0,0,1,.3-.258,12.154,12.154,0,0,1,3.61,0,.37.37,0,0,1,.3.258l.84,2.662a9.428,9.428,0,0,1,3.3,1.9l2.718-.6a.374.374,0,0,1,.377.129,12.009,12.009,0,0,1,1.81,3.129.382.382,0,0,1-.073.391l-1.887,2.059a9.307,9.307,0,0,1,0,3.8l1.9,2.059a.362.362,0,0,1,.073.385,11.742,11.742,0,0,1-1.809,3.131.377.377,0,0,1-.373.133l-2.731-.605a9.384,9.384,0,0,1-3.293,1.9l-.84,2.662a.379.379,0,0,1-.3.258,12.184,12.184,0,0,1-3.614,0Zm-4.073-5.506a8.61,8.61,0,0,0,3.34,1.93.382.382,0,0,1,.249.248l.827,2.617a11.664,11.664,0,0,0,2.929,0l.828-2.617a.375.375,0,0,1,.244-.248,8.548,8.548,0,0,0,3.34-1.93.385.385,0,0,1,.334-.09l2.684.592a11.243,11.243,0,0,0,1.466-2.525l-1.856-2.037a.369.369,0,0,1-.086-.338,8.6,8.6,0,0,0,0-3.854.368.368,0,0,1,.086-.336l1.856-2.035a11.181,11.181,0,0,0-1.466-2.525l-2.684.592a.381.381,0,0,1-.334-.092,8.718,8.718,0,0,0-3.34-1.934.354.354,0,0,1-.244-.244l-.828-2.615a11.138,11.138,0,0,0-2.929,0l-.827,2.615a.361.361,0,0,1-.249.244,8.749,8.749,0,0,0-3.34,1.926.368.368,0,0,1-.334.09l-2.684-.592a11.29,11.29,0,0,0-1.466,2.535l1.856,2.035a.37.37,0,0,1,.09.336,8.6,8.6,0,0,0,0,3.854.371.371,0,0,1-.09.338l-1.856,2.037a11.225,11.225,0,0,0,1.466,2.525l2.684-.592a.367.367,0,0,1,.08-.008A.385.385,0,0,1,7004.887,17078.287Zm-1.226-6.324a7.1,7.1,0,1,1,7.1,7.105A7.105,7.105,0,0,1,7003.661,17071.963Zm.75,0a6.356,6.356,0,1,0,6.354-6.354A6.357,6.357,0,0,0,7004.412,17071.963Zm3.738,4.078a.371.371,0,0,1-.188-.322v-7.512a.379.379,0,0,1,.188-.324.384.384,0,0,1,.373,0l6.543,3.756a.379.379,0,0,1,.188.324.371.371,0,0,1-.188.322l-6.543,3.76a.381.381,0,0,1-.188.047A.345.345,0,0,1,7008.15,17076.041Zm.562-.965,5.419-3.113-5.419-3.107Z" transform="translate(-6995.353 -17060)" fill="#fdb82b"/></g></svg>