<svg id="Baggage" xmlns="http://www.w3.org/2000/svg" width="11.394" height="11.383" viewBox="0 0 11.394 11.383">
  <path id="Path_2201" data-name="Path 2201" d="M49.623,20H49v4.736h.623Z" transform="translate(-39.351 -13.976)" fill="#fff"/>
  <path id="Path_2202" data-name="Path 2202" d="M12.623,20H12v4.736h.623Z" transform="translate(-10.878 -13.976)" fill="#fff"/>
  <path id="Path_2203" data-name="Path 2203" d="M15.374,56.748A.374.374,0,1,0,15,56.374.374.374,0,0,0,15.374,56.748Z" transform="translate(-12.634 -45.489)" fill="#fff"/>
  <path id="Path_2204" data-name="Path 2204" d="M45.374,56.748A.374.374,0,1,0,45,56.374.374.374,0,0,0,45.374,56.748Z" transform="translate(-36.72 -45.489)" fill="#fff"/>
  <path id="Path_2205" data-name="Path 2205" d="M22.928,9H18.976a3.2,3.2,0,0,0-1.4.292c-.371.187-.579.441-.579.7v.374h.988V10c0-.132.1-.259.289-.352a1.6,1.6,0,0,1,.7-.146h3.952a1.6,1.6,0,0,1,.7.146c.185.093.289.22.289.352v.374H24.9V10c0-.264-.208-.518-.579-.7A3.2,3.2,0,0,0,22.928,9Z" transform="translate(-15.255 -8.259)" fill="#fff"/>
  <path id="Path_2206" data-name="Path 2206" d="M17.125,58.249A.125.125,0,1,0,17,58.125.125.125,0,0,0,17.125,58.249Z" transform="translate(-14.31 -47.24)" fill="#3b8686"/>
  <path id="Path_2207" data-name="Path 2207" d="M47.125,58.249A.125.125,0,1,0,47,58.125.125.125,0,0,0,47.125,58.249Z" transform="translate(-38.546 -47.24)" fill="#3b8686"/>
  <path id="Path_2208" data-name="Path 2208" d="M26.62,31.171a1.246,1.246,0,0,1-1.246-1.246V29.3a.74.74,0,0,1,.04-.242.5.5,0,0,0-.414.491v1.5a.5.5,0,0,0,.5.5h1a.5.5,0,0,0,.5-.474.74.74,0,0,1-.374.1Z" transform="translate(-20.3 -23.276)" fill="#fff"/>
  <path id="Path_2209" data-name="Path 2209" d="M52.247,6.964a.748.748,0,0,1-.485.217.125.125,0,1,1-.2-.015A.748.748,0,0,1,51.228,7a.5.5,0,0,0,.095.573h0a.5.5,0,0,0,.7,0l.353-.351A.5.5,0,0,0,52.5,6.71Z" transform="translate(-41.257 -6.255)" fill="#fff"/>
  <path id="Path_2210" data-name="Path 2210" d="M29.122,33h-1a.125.125,0,0,0,0,.249h1a.125.125,0,0,0,0-.249Z" transform="translate(-22.926 -27.246)" fill="#3b8686"/>
  <path id="Path_2211" data-name="Path 2211" d="M28.125,37.249h.5a.125.125,0,0,0,0-.249h-.5a.125.125,0,0,0,0,.249Z" transform="translate(-23.071 -30.478)" fill="#3b8686"/>
  <path id="Path_2212" data-name="Path 2212" d="M28.872,41h-.748a.125.125,0,0,0,0,.249h.748a.125.125,0,1,0,0-.249Z" transform="translate(-23.002 -33.709)" fill="#3b8686"/>
  <path id="Path_2213" data-name="Path 2213" d="M54.125,10.249a.125.125,0,1,0-.088-.037A.125.125,0,0,0,54.125,10.249Z" transform="translate(-43.728 -9.135)" fill="#3b8686"/>
  <path id="Path_2214" data-name="Path 2214" d="M12.685,6.084h-.76v-.3l.46-.46A.949.949,0,0,0,13.579,5.2l.537-.537a.949.949,0,0,0-1.343-1.343l-.537.537a.949.949,0,0,0-.122,1.194l-.241.241A1.709,1.709,0,0,0,10.216,4H7.178A1.709,1.709,0,0,0,5.469,5.7v.38h-.76A1.709,1.709,0,0,0,3,7.793v4.178A1.709,1.709,0,0,0,4.709,13.68h.38a.76.76,0,0,0,1.519,0h4.178a.76.76,0,0,0,1.519,0h.38a1.709,1.709,0,0,0,1.709-1.709V7.793a1.709,1.709,0,0,0-1.709-1.709Zm-.179-1.956.536-.536a.57.57,0,1,1,.807.805l-.537.547a.573.573,0,0,1-.805-.817ZM4.519,13.287A1.329,1.329,0,0,1,3.38,11.971V7.793A1.329,1.329,0,0,1,4.519,6.477Zm7.026-7.2h-.38v-.19h.38Zm-5.7-.38A1.329,1.329,0,0,1,7.178,4.375h3.038a1.329,1.329,0,0,1,1.316,1.139h-.38a.95.95,0,0,0-.936-.76H7.178a.95.95,0,0,0-.949.949v.38h-.38Zm4.937,0v.38H6.608V5.7a.57.57,0,0,1,.57-.57h3.038a.57.57,0,0,1,.57.57ZM4.9,13.3V6.464h.57v6.559a.759.759,0,0,0-.277.277Zm.949.76a.378.378,0,0,1-.365-.484.294.294,0,0,0,.015-.044.38.38,0,0,1,.2-.2.19.19,0,0,0,.044-.015.38.38,0,0,1,.454.216.294.294,0,0,0,.015.044.379.379,0,0,1-.365.484Zm.657-.76a.76.76,0,0,0-.657-.38V6.464h5.7V12.92a.76.76,0,0,0-.657.38Zm5.04.76a.378.378,0,0,1-.365-.484.294.294,0,0,0,.015-.044.38.38,0,0,1,.454-.216.19.19,0,0,0,.044.015.38.38,0,0,1,.2.2.294.294,0,0,0,.015.044.379.379,0,0,1-.365.484Zm.949-.76H12.2a.759.759,0,0,0-.277-.277V6.464h.57Zm1.519-1.329a1.329,1.329,0,0,1-1.139,1.316V6.477a1.329,1.329,0,0,1,1.139,1.316Z" transform="translate(-3 -3.056)" fill="#3b8686"/>
  <path id="Path_2215" data-name="Path 2215" d="M25.62,28h-1a.623.623,0,0,0-.623.623v1.5a.623.623,0,0,0,.623.623h1a.623.623,0,0,0,.623-.623v-1.5A.623.623,0,0,0,25.62,28Zm.374,2.119a.374.374,0,0,1-.374.374h-1a.374.374,0,0,1-.374-.374v-1.5a.374.374,0,0,1,.374-.374h1a.374.374,0,0,1,.374.374Z" transform="translate(-19.425 -22.319)" fill="#3b8686"/>
</svg>
