<svg id="call_black_24dp" xmlns="http://www.w3.org/2000/svg" width="25.76" height="25.76" viewBox="0 0 25.76 25.76">
  <g id="call_black_24dp-2" data-name="call_black_24dp" opacity="0.75">
    <path id="Path_625" data-name="Path 625" d="M0,0H25.76V25.76H0Z" fill="none"/>
    <path id="Path_626" data-name="Path 626" d="M20.817,16.46l-2.789-.318a2.186,2.186,0,0,0-1.8.626l-2.02,2.02a16.519,16.519,0,0,1-7.236-7.236L9,9.521a2.186,2.186,0,0,0,.626-1.8L9.311,4.953A2.2,2.2,0,0,0,7.126,3.01h-1.9a2.179,2.179,0,0,0-2.2,2.273A18.656,18.656,0,0,0,20.477,22.729a2.179,2.179,0,0,0,2.273-2.2v-1.9A2.176,2.176,0,0,0,20.817,16.46Z" transform="translate(0 0)"/>
  </g>
</svg>
