<svg id="call_black_24dp" xmlns="http://www.w3.org/2000/svg" width="31" height="31" viewBox="0 0 31 31">
  <g id="call_black_24dp-2" data-name="call_black_24dp" opacity="0.75">
    <path id="Path_625" data-name="Path 625" d="M0,0H31V31H0Z" fill="none"/>
    <path id="Path_626" data-name="Path 626" d="M25.544,20.034l-3.53-.4a2.766,2.766,0,0,0-2.279.792L17.178,22.98A20.908,20.908,0,0,1,8.02,13.822l2.571-2.571a2.766,2.766,0,0,0,.792-2.279l-.4-3.5A2.781,2.781,0,0,0,8.215,3.01h-2.4A2.758,2.758,0,0,0,3.031,5.887,23.613,23.613,0,0,0,25.113,27.969a2.758,2.758,0,0,0,2.877-2.779v-2.4A2.754,2.754,0,0,0,25.544,20.034Z" transform="translate(0)"/>
  </g>
</svg>

