<svg xmlns="http://www.w3.org/2000/svg" width="16" height="16" viewBox="0 0 16 16">
  <path id="cancel_trip_icon" d="M145.2,72.238a8,8,0,1,0,8,8.01A8.025,8.025,0,0,0,145.2,72.238Zm0,15.373a7.362,7.362,0,1,1,7.372-7.362A7.378,7.378,0,0,1,145.2,87.611Zm3.728-10.5-3.267,3.137,3.267,3.137a.3.3,0,0,1,0,.439.337.337,0,0,1-.23.1.269.269,0,0,1-.209-.084L145.2,80.667l-3.288,3.158a.3.3,0,0,1-.209.084.337.337,0,0,1-.23-.1.3.3,0,0,1,0-.439l3.267-3.137-3.267-3.137a.311.311,0,0,1,.44-.439l3.288,3.158,3.288-3.158a.3.3,0,0,1,.44,0,.328.328,0,0,1,0,.46Z" transform="translate(-137.2 -72.238)" fill="#b7290b"/>
</svg>
