<svg id="Component_38_2" data-name="Component 38 – 2" xmlns="http://www.w3.org/2000/svg" width="40" height="19.782" viewBox="0 0 40 19.782">
  <g id="Group_538" data-name="Group 538">
    <path id="Path_621" data-name="Path 621" d="M939.047,290.6l-3.389-3.168a5.468,5.468,0,0,0-3.736-1.495h-11.56a5.462,5.462,0,0,0-3.115.98l-5.987,4.17a5.035,5.035,0,0,1-1.3.648l-6.086,1.99a4.724,4.724,0,0,0-3.222,4.516v2.273a1.736,1.736,0,0,0,1.71,1.758h1.071a5.355,5.355,0,1,1,10.705,0h14a5.355,5.355,0,1,1,10.705,0h.1a1.731,1.731,0,0,0,1.71-1.758v-6.167A5.128,5.128,0,0,0,939.047,290.6Zm-13.545.827H914.143l4.11-2.841a5.534,5.534,0,0,1,3.163-1H925.5Zm2.641,0v-3.841h2.874a3.893,3.893,0,0,1,3.139,1.613l1.619,2.227Z" transform="translate(-900.657 -285.933)" fill="#53a4aa"/>
  </g>
  <g id="Group_539" data-name="Group 539" transform="translate(3.747 12.886)">
    <path id="Path_622" data-name="Path 622" d="M911.3,299.984a3.448,3.448,0,1,0-3.448,3.448A3.448,3.448,0,0,0,911.3,299.984Z" transform="translate(-904.404 -296.536)" fill="#53a4aa"/>
  </g>
  <g id="Group_540" data-name="Group 540" transform="translate(30.217 12.886)">
    <path id="Path_623" data-name="Path 623" d="M933.154,299.984a3.448,3.448,0,1,0-3.448,3.448A3.448,3.448,0,0,0,933.154,299.984Z" transform="translate(-926.258 -296.536)" fill="#53a4aa"/>
  </g>
</svg>
