<svg xmlns="http://www.w3.org/2000/svg" width="24" height="24" viewBox="0 0 24 24">
  <g id="Fave_Loc_Icon" data-name="Fave Loc Icon" transform="translate(6224 12505)">
    <rect id="Rectangle_300" data-name="Rectangle 300" width="24" height="24" transform="translate(-6224 -12505)" fill="#fff" opacity="0"/>
    <g id="noun_location_favourite_745891" data-name="noun_location favourite_745891" transform="translate(-6254.976 -12528.28)">
      <path id="Path_2166" data-name="Path 2166" d="M42.976,24.905A8.067,8.067,0,0,0,39.8,40.386l2.949,5.107a.325.325,0,0,0,.562,0l2.985-5.169a8.067,8.067,0,0,0-3.318-15.42Zm2.96,14.868a.327.327,0,0,0-.151.135l-2.756,4.774-2.722-4.715a.323.323,0,0,0-.157-.138,7.418,7.418,0,1,1,5.787-.057Z" transform="translate(0 0)"/>
    </g>
  </g>
</svg>
