<svg xmlns="http://www.w3.org/2000/svg" xmlns:xlink="http://www.w3.org/1999/xlink" width="66" height="66" viewBox="0 0 66 66">
  <defs>
    <filter id="Ellipse_157" x="0" y="0" width="66" height="66" filterUnits="userSpaceOnUse">
      <feOffset dy="5" input="SourceAlpha"/>
      <feGaussianBlur stdDeviation="5" result="blur"/>
      <feFlood flood-color="#050c19" flood-opacity="0.149"/>
      <feComposite operator="in" in2="blur"/>
      <feComposite in="SourceGraphic"/>
    </filter>
  </defs>
  <g id="Fave_Locs" data-name="Fave Locs" transform="translate(-1179 -1916)">
    <g transform="matrix(1, 0, 0, 1, 1179, 1916)" filter="url(#Ellipse_157)">
      <circle id="Ellipse_157-2" data-name="Ellipse 157" cx="18" cy="18" r="18" transform="translate(15 10)" fill="#fff"/>
    </g>
    <g id="Group_645" data-name="Group 645" transform="translate(902 1462)">
      <rect id="Rectangle_235" data-name="Rectangle 235" width="24" height="24" transform="translate(298 470)" fill="#fff"/>
      <g id="Group_601" data-name="Group 601" transform="translate(168.924 -283.1)">
        <g id="Group_598" data-name="Group 598" transform="translate(133.37 753.921)">
          <ellipse id="Ellipse_132" data-name="Ellipse 132" cx="7.705" cy="7.508" rx="7.705" ry="7.508" transform="translate(0 0)" fill="#14274a"/>
          <path id="Path_2086" data-name="Path 2086" d="M-20564.857,11919.016c.363,5.341-6.412,14.808-7.125,14.808s-7.809-10.553-7.086-14.491" transform="translate(20579.725 -11911.466)" fill="#14274a" stroke="#14274a" stroke-width="1"/>
        </g>
        <g id="Group_599" data-name="Group 599" transform="translate(135.83 756.324)">
          <path id="Path_2089" data-name="Path 2089" d="M8.689,11.969l2.544,1.539a.612.612,0,0,0,.913-.662l-.674-2.893L13.721,8a.612.612,0,0,0-.349-1.073l-2.961-.251L9.253,3.945a.613.613,0,0,0-1.128,0L6.966,6.673l-2.961.251A.612.612,0,0,0,3.656,8l2.25,1.949L5.231,12.84a.612.612,0,0,0,.913.662Z" transform="translate(-3.443 -3.573)" fill="#fdb813"/>
        </g>
      </g>
    </g>
  </g>
</svg>
