<svg xmlns="http://www.w3.org/2000/svg" width="24" height="24" viewBox="0 0 24 24">
  <g id="Favourite_Location_Icon" data-name="Favourite Location Icon" transform="translate(6209 12376)">
    <rect id="Rectangle_301" data-name="Rectangle 301" width="24" height="24" transform="translate(-6209 -12376)" fill="#fff" opacity="0"/>
    <g id="noun_location_favourite_689877" data-name="noun_location favourite_689877" transform="translate(-6239.033 -12393.535)">
      <path id="Path_2168" data-name="Path 2168" d="M42.033,18.833A7.54,7.54,0,0,0,34.5,26.364c0,2.375,2.3,5.742,4.338,8.713,1.214,1.774,2.591,3.785,2.591,4.488a.6.6,0,1,0,1.2,0c0-.7,1.376-2.714,2.591-4.488,2.034-2.971,4.338-6.337,4.338-8.713A7.539,7.539,0,0,0,42.033,18.833Zm2.2,15.564c-.978,1.429-1.724,2.534-2.2,3.409-.475-.875-1.221-1.98-2.2-3.409-1.839-2.687-4.128-6.03-4.128-8.032a6.328,6.328,0,0,1,12.655,0C48.361,28.367,46.072,31.71,44.233,34.4Z" transform="translate(0 0)"/>
      <path id="Path_2169" data-name="Path 2169" d="M58.615,39.271a.6.6,0,0,0-.486-.409l-2.373-.345L54.7,36.366a.6.6,0,0,0-1.079,0l-1.061,2.15-2.373.345a.6.6,0,0,0-.334,1.027l1.717,1.673-.405,2.363a.6.6,0,0,0,.873.635l2.122-1.116,2.122,1.116a.6.6,0,0,0,.873-.635l-.405-2.363,1.717-1.674A.6.6,0,0,0,58.615,39.271ZM55.679,40.92a.6.6,0,0,0-.173.533l.253,1.473-1.323-.7a.6.6,0,0,0-.56,0l-1.323.7.253-1.473a.6.6,0,0,0-.173-.533l-1.07-1.043,1.479-.215a.6.6,0,0,0,.453-.329l.661-1.34.661,1.34a.6.6,0,0,0,.453.329l1.479.215Z" transform="translate(-12.122 -13.748)"/>
    </g>
  </g>
</svg>
