<svg xmlns="http://www.w3.org/2000/svg" width="24" height="24" viewBox="0 0 24 24">
  <g id="Filter_Icon" data-name="Filter Icon" transform="translate(-1898 -2084)">
    <rect id="Rectangle_255" data-name="Rectangle 255" width="24" height="24" transform="translate(1898 2084)" fill="#fff"/>
    <g id="filter_alt_black_24dp" transform="translate(1898 2084)">
      <path id="Path_2101" data-name="Path 2101" d="M0,0H24m0,24H0" fill="none"/>
      <path id="Path_2102" data-name="Path 2102" d="M4.25,5.61C6.57,8.59,10,13,10,13v5a2.006,2.006,0,0,0,2,2h0a2.006,2.006,0,0,0,2-2V13s3.43-4.41,5.75-7.39A1,1,0,0,0,18.95,4H5.04A1,1,0,0,0,4.25,5.61Z"/>
      <path id="Path_2103" data-name="Path 2103" d="M0,0H24V24H0Z" fill="none"/>
    </g>
  </g>
</svg>
