<svg xmlns="http://www.w3.org/2000/svg" width="20.804" height="12.922" viewBox="0 0 20.804 12.922">
  <g id="gozinehaye_safar" data-name="gozinehaye safar" transform="translate(-4.6 -10)" opacity="0.75">
    <path id="Path_832" data-name="Path 832" d="M36.158,16.005h0a.847.847,0,0,0,.858-.858v-.429a.847.847,0,0,1,.858-.858h.858A.847.847,0,0,0,39.589,13h0a.847.847,0,0,0-.858-.858h-.858a.847.847,0,0,1-.858-.858v-.429A.847.847,0,0,0,36.158,10h0a.847.847,0,0,0-.858.858V15.2A.874.874,0,0,0,36.158,16.005Z" transform="translate(-14.239 0)"/>
    <path id="Path_833" data-name="Path 833" d="M5.458,15.616H17.629a.847.847,0,0,0,.858-.858h0a.847.847,0,0,0-.858-.858H5.458a.847.847,0,0,0-.858.858h0A.847.847,0,0,0,5.458,15.616Z" transform="translate(0 -1.809)"/>
    <path id="Path_834" data-name="Path 834" d="M8.085,28.859h0A.847.847,0,0,0,8.943,28V23.658a.847.847,0,0,0-.858-.858h0a.847.847,0,0,0-.858.858v.429a.847.847,0,0,1-.858.858H5.458A.847.847,0,0,0,4.6,25.8h0a.847.847,0,0,0,.858.858h.858a.847.847,0,0,1,.858.858v.429A.9.9,0,0,0,8.085,28.859Z" transform="translate(0 -5.937)"/>
    <path id="Path_835" data-name="Path 835" d="M18.358,28.616H30.529a.847.847,0,0,0,.858-.858h0a.847.847,0,0,0-.858-.858H18.358a.847.847,0,0,0-.858.858h0A.882.882,0,0,0,18.358,28.616Z" transform="translate(-5.983 -7.839)"/>
  </g>
</svg>
