<svg id="history_black_24dp" xmlns="http://www.w3.org/2000/svg" width="24" height="24" viewBox="0 0 24 24">
   <g id="history_black_24dp-2" data-name="history_black_24dp" opacity="0.75">
      <path id="Path_732" data-name="Path 732" d="M0,0H24V24H0Z" fill="none"/>
      <path id="Path_733" data-name="Path 733" d="M13.26,3A9.009,9.009,0,0,0,4,12H2.21a.5.5,0,0,0-.35.85l2.79,2.8a.5.5,0,0,0,.71,0l2.79-2.8A.5.5,0,0,0,7.79,12H6a7,7,0,0,1,7.1-7A7.089,7.089,0,0,1,20,11.9,7,7,0,0,1,13,19a6.9,6.9,0,0,1-4.28-1.48,1,1,0,0,0-1.24,1.57A8.858,8.858,0,0,0,13,21a9.009,9.009,0,0,0,9-9.26A9.106,9.106,0,0,0,13.26,3Zm-.51,5a.755.755,0,0,0-.75.75v3.68a1.012,1.012,0,0,0,.49.86l3.12,1.85a.751.751,0,1,0,.77-1.29L13.5,12.14V8.74A.753.753,0,0,0,12.75,8Z" fill="#53a4aa"/>
   </g>
</svg>
