<svg id="Location_pin" data-name="Location pin" xmlns="http://www.w3.org/2000/svg" xmlns:xlink="http://www.w3.org/1999/xlink" width="36" height="61.911" viewBox="0 0 36 61.911">
  <defs>
    <linearGradient id="linear-gradient" x1="0.106" y1="-0.203" x2="0.742" y2="1.256" gradientUnits="objectBoundingBox">
      <stop offset="0" stop-color="#fdb813"/>
      <stop offset="0.264" stop-color="#dca522"/>
      <stop offset="0.605" stop-color="#976d09"/>
      <stop offset="1" stop-color="#543d06"/>
    </linearGradient>
  </defs>
  <rect id="Rectangle_302" data-name="Rectangle 302" width="36" height="36" transform="translate(0 5.189)" fill="#fff" opacity="0"/>
  <g id="noun_location_pin_2558186" data-name="noun_location pin_2558186" transform="translate(5.948)">
    <path id="Path_2176" data-name="Path 2176" d="M42.854,12.055a12.294,12.294,0,0,1-1.72,6.116C40.028,20.1,38.814,22,37.546,23.823a38.528,38.528,0,0,0-6.093,12.456c-.166.63-.259,1.284-.421,1.933a1.635,1.635,0,0,1-.317.46,1.454,1.454,0,0,1-.329-.448A40.606,40.606,0,0,0,23.021,22.81a41.067,41.067,0,0,1-3.093-4.763,12.207,12.207,0,1,1,22.925-5.992ZM30.692,17.2a4.8,4.8,0,0,0,4.767-4.8,4.693,4.693,0,0,0-9.383-.085A4.828,4.828,0,0,0,30.692,17.2Z" transform="translate(-18.459 -0.001)" fill="url(#linear-gradient)"/>
  </g>
  <circle id="Ellipse_173" data-name="Ellipse 173" cx="3" cy="3" r="3" transform="translate(15 42.189)" fill="rgba(18,18,18,0.7)"/>
</svg>
