<svg xmlns="http://www.w3.org/2000/svg" width="16" height="17" viewBox="0 0 16 17">
  <g id="Fave_Loc_Icon" data-name="Fave Loc Icon" transform="translate(6223.804 12504.805)">
    <rect id="Rectangle_300" data-name="Rectangle 300" width="16" height="16" transform="translate(-6223.804 -12504.805)" fill="#fff" opacity="0"/>
    <g id="noun_location_favourite_745891" data-name="noun_location favourite_745891" transform="translate(-6221.313 -12503.891)">
      <path id="Path_2166" data-name="Path 2166" d="M40.418,24.905a5.51,5.51,0,0,0-2.17,10.574l2.014,3.488a.222.222,0,0,0,.384,0l2.038-3.53a5.51,5.51,0,0,0-2.266-10.531ZM42.44,35.059a.223.223,0,0,0-.1.092l-1.882,3.26-1.859-3.22a.22.22,0,0,0-.108-.094,5.066,5.066,0,1,1,3.953-.039Z" transform="translate(-34.909 -24.905)" fill="#fdb813"/>
    </g>
    <g id="Ellipse_169" data-name="Ellipse 169" transform="translate(-6216.804 -12489.805)" fill="#fdb813" stroke="#fdb813" stroke-width="1">
      <circle cx="1" cy="1" r="1" stroke="none"/>
      <circle cx="1" cy="1" r="0.5" fill="none"/>
    </g>
  </g>
</svg>
