<svg xmlns="http://www.w3.org/2000/svg" width="17.791" height="18" viewBox="0 0 17.791 18">
  <g id="Group_1011" data-name="Group 1011" transform="translate(-3 -3)">
    <g id="Group_1010" data-name="Group 1010">
      <path id="Path_2962" data-name="Path 2962" d="M5,5h6a1,1,0,0,0,1-1h0a1,1,0,0,0-1-1H5A2.006,2.006,0,0,0,3,5V19a2.006,2.006,0,0,0,2,2h6a1,1,0,0,0,1-1h0a1,1,0,0,0-1-1H5Z" fill="#b72910"/>
      <path id="Path_2963" data-name="Path 2963" d="M20.65,11.65,17.86,8.86a.5.5,0,0,0-.86.35V11H10a1,1,0,0,0-1,1H9a1,1,0,0,0,1,1h7v1.79a.5.5,0,0,0,.85.35l2.79-2.79A.492.492,0,0,0,20.65,11.65Z" fill="#b72910"/>
    </g>
  </g>
</svg>
