<svg id="luggage_black_24dp" xmlns="http://www.w3.org/2000/svg" width="26" height="26" viewBox="0 0 26 26">
  <g id="luggage_black_24dp-2" data-name="luggage_black_24dp" opacity="0.75">
    <rect id="Rectangle_286" data-name="Rectangle 286" width="26" height="26" fill="none"/>
    <g id="Group_699" data-name="Group 699" transform="translate(5.486 2.194)">
      <path id="Path_659" data-name="Path 659" d="M18.167,6.389H15.972V3.1a1.1,1.1,0,0,0-1.1-1.1H10.486a1.1,1.1,0,0,0-1.1,1.1V6.389H7.194A2.2,2.2,0,0,0,5,8.583V20.653a2.2,2.2,0,0,0,2.194,2.194,1.1,1.1,0,1,0,2.194,0h6.583a1.1,1.1,0,0,0,2.194,0,2.2,2.2,0,0,0,2.194-2.194V8.583A2.2,2.2,0,0,0,18.167,6.389ZM9.115,19.556h0a.829.829,0,0,1-.823-.823V10.5a.829.829,0,0,1,.823-.823h0a.829.829,0,0,1,.823.823v8.229A.829.829,0,0,1,9.115,19.556Zm3.566,0h0a.829.829,0,0,1-.823-.823V10.5a.829.829,0,0,1,.823-.823h0a.829.829,0,0,1,.823.823v8.229A.829.829,0,0,1,12.681,19.556ZM14.326,6.389H11.035V3.646h3.292Zm1.92,13.167h0a.829.829,0,0,1-.823-.823V10.5a.829.829,0,0,1,.823-.823h0a.829.829,0,0,1,.823.823v8.229A.829.829,0,0,1,16.247,19.556Z" transform="translate(-5 -2)"/>
    </g>
  </g>
</svg>