<svg xmlns="http://www.w3.org/2000/svg" width="20.934" height="20.934" viewBox="0 0 20.934 20.934">
  <path id="message_icon" d="M18.841,0H2.093A2.091,2.091,0,0,0,.01,2.093L0,20.934l4.187-4.187H18.841a2.1,2.1,0,0,0,2.093-2.093V2.093A2.1,2.1,0,0,0,18.841,0ZM5.234,7.327H15.7a1.047,1.047,0,1,1,0,2.093H5.234a1.047,1.047,0,0,1,0-2.093Zm6.28,5.234H5.234a1.047,1.047,0,0,1,0-2.093h6.28a1.047,1.047,0,1,1,0,2.093ZM15.7,6.28H5.234a1.047,1.047,0,0,1,0-2.093H15.7a1.047,1.047,0,0,1,0,2.093Z" fill="#404c6d"/>
</svg>
