<svg xmlns="http://www.w3.org/2000/svg" width="24.941" height="16.484" viewBox="0 0 24.941 16.484">
  <path id="Choose_2" data-name="Choose 2" d="M.97,75.374a20.223,20.223,0,0,1-.158-5.2,3.917,3.917,0,0,1,.851-2.112,8.776,8.776,0,0,1-1.324-.819C-.669,65.982,2.8,65.635,3.018,65.887l.347.536c.882-2.017,1.8-4.7,3.877-5.137a25.735,25.735,0,0,1,10.747,0c2.08.441,3.026,3.12,3.877,5.137l.378-.536c.221-.252,3.656.095,2.679,1.355a14.67,14.67,0,0,1-1.324.819,4.14,4.14,0,0,1,.819,2.112,16.7,16.7,0,0,1-.189,5.2v1.261a.641.641,0,0,1-.6.567h-4a.593.593,0,0,1-.6-.567v-.851H6.2v.851a.593.593,0,0,1-.6.567h-4a.615.615,0,0,1-.6-.567L.97,75.374Zm3.215-8.982a52.381,52.381,0,0,1,16.893,0c-.914-1.607-1.7-4.16-3.719-4.538a23.874,23.874,0,0,0-9.455,0c-2.08.378-2.836,2.931-3.719,4.538ZM10.3,73.231a.391.391,0,0,0-.378.41v.63a.383.383,0,0,0,.378.378h4.664a.357.357,0,0,0,.347-.378v-.63a.367.367,0,0,0-.347-.41Zm10.81-3.971a1.356,1.356,0,1,0,0,2.711,1.356,1.356,0,1,0,0-2.711Zm-16.956,0a1.356,1.356,0,1,1-1.387,1.355A1.365,1.365,0,0,1,4.153,69.26Z" transform="translate(-0.156 -60.719)" fill="#280f36" fill-rule="evenodd"/>
</svg>
