<svg xmlns="http://www.w3.org/2000/svg" width="7.692" height="11.41" viewBox="0 0 7.692 11.41">
  <g id="noun_passenger_4353987" transform="translate(-6.562 -2)">
    <circle id="Ellipse_172" data-name="Ellipse 172" cx="1.426" cy="1.426" r="1.426" transform="translate(8.141 2)" fill="#3b8686"/>
    <path id="Path_2216" data-name="Path 2216" d="M11.08,12.637l.315,1.89A1.63,1.63,0,0,0,13,15.889h2.1a.371.371,0,0,1,.37.338l.195,2.144a.408.408,0,0,0,.406.371h.443a.407.407,0,0,0,.408-.408v-3.26a.815.815,0,0,0-.815-.815H14.518a.371.371,0,0,1-.366-.31l-.286-1.716A1.452,1.452,0,0,0,12.569,11a1.407,1.407,0,0,0-1.489,1.635Z" transform="translate(-2.666 -5.332)" fill="#3b8686"/>
    <path id="Path_2217" data-name="Path 2217" d="M7.374,10.349a.407.407,0,0,0-.809.1l.5,3.974a2.852,2.852,0,0,0,2.83,2.5H11.4a.408.408,0,1,0,0-.815H9.892a2.038,2.038,0,0,1-2.022-1.785Z" transform="translate(0 -4.435)" fill="#3b8686"/>
  </g>
</svg>
