<svg id="other_houses_black_24dp" xmlns="http://www.w3.org/2000/svg" width="24" height="24" viewBox="0 0 24 24">
  <rect id="Rectangle_285" data-name="Rectangle 285" width="24" height="24" fill="none"/>
  <path id="Path_2150" data-name="Path 2150" d="M1.61,12.19a1,1,0,0,0,1.4.19L4,11.62V20a1,1,0,0,0,1,1H19a1,1,0,0,0,1-1V11.62l.99.76a1,1,0,1,0,1.21-1.59L12.6,3.46a1,1,0,0,0-1.21,0l-9.6,7.33A1,1,0,0,0,1.61,12.19ZM8,15a1,1,0,1,1,1-1A1,1,0,0,1,8,15Zm4,0a1,1,0,1,1,1-1A1,1,0,0,1,12,15Zm4,0a1,1,0,1,1,1-1A1,1,0,0,1,16,15Z"/>
</svg>
