<svg id="admin_panel_settings_black_24dp" xmlns="http://www.w3.org/2000/svg" width="24" height="24" viewBox="0 0 24 24">
   <g id="admin_panel_settings_black_24dp-2" data-name="admin_panel_settings_black_24dp" opacity="0.75">
      <g id="Group_760" data-name="Group 760">
         <rect id="Rectangle_321" data-name="Rectangle 321" width="24" height="24" fill="none"/>
         <rect id="Rectangle_322" data-name="Rectangle 322" width="24" height="24" fill="none"/>
      </g>
      <g id="Group_762" data-name="Group 762">
         <g id="Group_761" data-name="Group 761">
            <path id="Path_726" data-name="Path 726" d="M17,11a6.638,6.638,0,0,1,1,.09V7.58a1.981,1.981,0,0,0-1.2-1.83l-5.5-2.4a2.022,2.022,0,0,0-1.6,0L4.2,5.75A2,2,0,0,0,3,7.58v3.6A10.213,10.213,0,0,0,10.5,21a9.166,9.166,0,0,0,1.6-.55A5.99,5.99,0,0,1,17,11Z" fill="#53a4aa"/>
            <path id="Path_727" data-name="Path 727" d="M17,13a4,4,0,1,0,4,4A4,4,0,0,0,17,13Zm0,1.38a1.12,1.12,0,1,1-1.12,1.12A1.125,1.125,0,0,1,17,14.38Zm0,5.37a2.725,2.725,0,0,1-2.24-1.17c.05-.72,1.51-1.08,2.24-1.08s2.19.36,2.24,1.08A2.725,2.725,0,0,1,17,19.75Z" fill="#53a4aa"/>
         </g>
      </g>
   </g>
</svg>
