<svg id="smoke_free_black_24dp" xmlns="http://www.w3.org/2000/svg" width="24" height="24" viewBox="0 0 24 24">
  <g id="smoke_free_black_24dp-2" data-name="smoke_free_black_24dp" opacity="0.75">
    <path id="Path_662" data-name="Path 662" d="M0,0H24V24H0Z" fill="none"/>
    <path id="Path_663" data-name="Path 663" d="M20.14,12.82h1.471v2.951H20.14Zm-2.451,0H19.16v2.951H17.689ZM16.708,14.3a1.471,1.471,0,0,0-1.471-1.475h-.824l2.138,2.144A1.558,1.558,0,0,0,16.708,14.3ZM18.63,2.345h0Zm-.108,2.341a3.4,3.4,0,0,0,.824-1.328.758.758,0,0,0-.7-1,.783.783,0,0,0-.706.57A1.809,1.809,0,0,1,16.8,4.076a.783.783,0,0,0-.579.728v.148a.749.749,0,0,0,.628.738A3.963,3.963,0,0,1,20.14,9.643V11.1a.735.735,0,1,0,1.471,0V9.633a5.464,5.464,0,0,0-3.089-4.947ZM14.365,8.542h1.392a1.893,1.893,0,0,1,1.932,2.016V11.1a.736.736,0,0,0,.735.738h.01a.736.736,0,0,0,.735-.738v-.875a3.252,3.252,0,0,0-3.4-3.108H14.492a2.025,2.025,0,0,1-2.03-1.721,1.7,1.7,0,0,1,1.275-1.9.729.729,0,0,0,.529-.708.72.72,0,0,0-.912-.708,3.293,3.293,0,0,0-2.373,3.226A3.344,3.344,0,0,0,14.365,8.542ZM4.079,5.237A.979.979,0,1,0,2.7,6.624l6.168,6.2H3.471a1.475,1.475,0,0,0,0,2.951h8.335l6.168,6.187a.979.979,0,1,0,1.383-1.387Z" transform="translate(0.194 0.199)" fill="#f20c0c"/>
  </g>
</svg>



