<svg xmlns="http://www.w3.org/2000/svg" width="16.188" height="16.188" viewBox="0 0 16.188 16.188">
  <g id="smoke_free_black_24dp" opacity="0.75">
    <path id="Path_662" data-name="Path 662" d="M0,0H16.188V16.188H0Z" fill="none"/>
    <path id="Path_663" data-name="Path 663" d="M12.915,8.654H13.8v1.809h-.885Zm-1.475,0h.885v1.809H11.44Zm-.59.9a.894.894,0,0,0-.885-.9h-.5l1.286,1.315A.971.971,0,0,0,10.85,9.559Zm1.156-7.328h0Zm-.065,1.435a2.093,2.093,0,0,0,.5-.814.464.464,0,0,0-.419-.615.473.473,0,0,0-.425.35,1.1,1.1,0,0,1-.69.706.478.478,0,0,0-.348.446v.09a.457.457,0,0,0,.378.452,2.418,2.418,0,0,1,1.982,2.425V7.6a.443.443,0,1,0,.885,0V6.7a3.356,3.356,0,0,0-1.858-3.034ZM9.44,6.031h.838A1.15,1.15,0,0,1,11.44,7.267V7.6a.447.447,0,0,0,.442.452h.006a.447.447,0,0,0,.442-.452V7.062a1.972,1.972,0,0,0-2.047-1.906H9.516A1.225,1.225,0,0,1,8.3,4.1a1.043,1.043,0,0,1,.767-1.164A.446.446,0,0,0,9.381,2.5a.435.435,0,0,0-.549-.434A2.026,2.026,0,0,0,9.44,6.031ZM3.251,4a.579.579,0,0,0-.832,0,.61.61,0,0,0,0,.85l3.711,3.8H2.885a.9.9,0,0,0,0,1.809H7.9l3.711,3.794a.579.579,0,0,0,.832,0,.61.61,0,0,0,0-.85Z" transform="translate(0.194 0.199)" fill="#b7290b"/>
  </g>
</svg>


