<svg id="support_agent_black_24dp" xmlns="http://www.w3.org/2000/svg" width="24" height="24" viewBox="0 0 24 24">
   <g id="support_agent_black_24dp-2" data-name="support_agent_black_24dp" opacity="0.75">
      <g id="Group_764" data-name="Group 764">
         <rect id="Rectangle_324" data-name="Rectangle 324" width="24" height="24" fill="none"/>
         <rect id="Rectangle_325" data-name="Rectangle 325" width="24" height="24" fill="none"/>
      </g>
      <g id="Group_766" data-name="Group 766">
         <g id="Group_765" data-name="Group 765">
            <path id="Path_739" data-name="Path 739" d="M21,12.22a9,9,0,1,0-18,.06A1.968,1.968,0,0,0,2,14v2a2.006,2.006,0,0,0,2,2H4a1,1,0,0,0,1-1V12.19A7.19,7.19,0,0,1,11.78,4.9a7.007,7.007,0,0,1,7.22,7V19H12a1,1,0,0,0-1,1h0a1,1,0,0,0,1,1h7a2.006,2.006,0,0,0,2-2V17.78a1.849,1.849,0,0,0,1-1.64v-2.3A1.841,1.841,0,0,0,21,12.22Z" fill="#53a4aa"/>
            <circle id="Ellipse_156" data-name="Ellipse 156" cx="1" cy="1" r="1" transform="translate(8 12)" fill="#53a4aa"/>
            <circle id="Ellipse_157" data-name="Ellipse 157" cx="1" cy="1" r="1" transform="translate(14 12)" fill="#53a4aa"/>
            <path id="Path_740" data-name="Path 740" d="M18,11.03A6.039,6.039,0,0,0,6.02,12.45a8.075,8.075,0,0,0,4.86-5.89A8.037,8.037,0,0,0,18,11.03Z" fill="#53a4aa"/>
         </g>
      </g>
   </g>
</svg>
