<svg xmlns="http://www.w3.org/2000/svg" width="18.582" height="16.462" viewBox="0 0 18.582 16.462">
  <g id="takhfif" transform="translate(-9.269 -9.965)" opacity="0.75">
    <path id="Path_836" data-name="Path 836" d="M12.912,10.288a4.1,4.1,0,1,0,4.53,4.53A4.161,4.161,0,0,0,12.912,10.288Zm0,6.041a2.008,2.008,0,1,1,2.416-2.356A2.078,2.078,0,0,1,12.912,16.329Z" transform="translate(0 -0.121)"/>
    <path id="Path_837" data-name="Path 837" d="M25.666,10.047l.242.121a.8.8,0,0,1,.362,1.208L17.995,25.994a.893.893,0,0,1-1.087.362l-.242-.121a.8.8,0,0,1-.362-1.208l8.276-14.618A.8.8,0,0,1,25.666,10.047Z" transform="translate(-2.727 0)"/>
    <path id="Path_838" data-name="Path 838" d="M30.112,23.388a4.1,4.1,0,1,0,4.53,4.53A4.11,4.11,0,0,0,30.112,23.388Zm.06,5.98a2,2,0,1,1,2.356-2.356A2,2,0,0,1,30.172,29.368Z" transform="translate(-6.81 -5.307)"/>
  </g>
</svg>
